<svg width="166" height="24" viewBox="0 0 166 24" fill="none" xmlns="http://www.w3.org/2000/svg">
<g clip-path="url(#clip0_536_4086)">
<path opacity="0.3" d="M12.1666 4C7.75663 4 4.16663 7.59 4.16663 12C4.16663 16.41 7.75663 20 12.1666 20C16.5766 20 20.1666 16.41 20.1666 12C20.1666 7.59 16.5766 4 12.1666 4ZM17.1666 13H13.1666V17H11.1666V13H7.16663V11H11.1666V7H13.1666V11H17.1666V13Z" fill="url(#paint0_linear_536_4086)"/>
<path d="M13.1666 7H11.1666V11H7.16663V13H11.1666V17H13.1666V13H17.1666V11H13.1666V7ZM12.1666 2C6.64663 2 2.16663 6.48 2.16663 12C2.16663 17.52 6.64663 22 12.1666 22C17.6866 22 22.1666 17.52 22.1666 12C22.1666 6.48 17.6866 2 12.1666 2ZM12.1666 20C7.75663 20 4.16663 16.41 4.16663 12C4.16663 7.59 7.75663 4 12.1666 4C16.5766 4 20.1666 7.59 20.1666 12C20.1666 16.41 16.5766 20 12.1666 20Z" fill="url(#paint1_linear_536_4086)"/>
</g>
<path d="M36.0826 14.512H32.0086L31.3086 16.5H29.6426L33.1286 6.756H34.9766L38.4626 16.5H36.7826L36.0826 14.512ZM35.6346 13.21L34.0526 8.688L32.4566 13.21H35.6346ZM39.4463 12.608C39.4463 11.8333 39.605 11.1473 39.9223 10.55C40.249 9.95267 40.6877 9.49067 41.2383 9.164C41.7983 8.828 42.419 8.66 43.1003 8.66C43.6043 8.66 44.099 8.772 44.5843 8.996C45.079 9.21067 45.471 9.5 45.7603 9.864V6.14H47.3703V16.5H45.7603V15.338C45.499 15.7113 45.135 16.0193 44.6683 16.262C44.211 16.5047 43.6837 16.626 43.0863 16.626C42.4143 16.626 41.7983 16.458 41.2383 16.122C40.6877 15.7767 40.249 15.3007 39.9223 14.694C39.605 14.078 39.4463 13.3827 39.4463 12.608ZM45.7603 12.636C45.7603 12.104 45.6483 11.642 45.4243 11.25C45.2097 10.858 44.925 10.5593 44.5703 10.354C44.2157 10.1487 43.833 10.046 43.4223 10.046C43.0117 10.046 42.629 10.1487 42.2743 10.354C41.9197 10.55 41.6303 10.844 41.4063 11.236C41.1917 11.6187 41.0843 12.076 41.0843 12.608C41.0843 13.14 41.1917 13.6067 41.4063 14.008C41.6303 14.4093 41.9197 14.7173 42.2743 14.932C42.6383 15.1373 43.021 15.24 43.4223 15.24C43.833 15.24 44.2157 15.1373 44.5703 14.932C44.925 14.7267 45.2097 14.428 45.4243 14.036C45.6483 13.6347 45.7603 13.168 45.7603 12.636ZM48.9346 12.608C48.9346 11.8333 49.0933 11.1473 49.4106 10.55C49.7373 9.95267 50.176 9.49067 50.7266 9.164C51.2866 8.828 51.9073 8.66 52.5886 8.66C53.0926 8.66 53.5873 8.772 54.0726 8.996C54.5673 9.21067 54.9593 9.5 55.2486 9.864V6.14H56.8586V16.5H55.2486V15.338C54.9873 15.7113 54.6233 16.0193 54.1566 16.262C53.6993 16.5047 53.172 16.626 52.5746 16.626C51.9026 16.626 51.2866 16.458 50.7266 16.122C50.176 15.7767 49.7373 15.3007 49.4106 14.694C49.0933 14.078 48.9346 13.3827 48.9346 12.608ZM55.2486 12.636C55.2486 12.104 55.1366 11.642 54.9126 11.25C54.698 10.858 54.4133 10.5593 54.0586 10.354C53.704 10.1487 53.3213 10.046 52.9106 10.046C52.5 10.046 52.1173 10.1487 51.7626 10.354C51.408 10.55 51.1186 10.844 50.8946 11.236C50.68 11.6187 50.5726 12.076 50.5726 12.608C50.5726 13.14 50.68 13.6067 50.8946 14.008C51.1186 14.4093 51.408 14.7173 51.7626 14.932C52.1266 15.1373 52.5093 15.24 52.9106 15.24C53.3213 15.24 53.704 15.1373 54.0586 14.932C54.4133 14.7267 54.698 14.428 54.9126 14.036C55.1366 13.6347 55.2486 13.168 55.2486 12.636ZM66.4836 8.66C67.0903 8.66 67.6316 8.786 68.1076 9.038C68.593 9.29 68.971 9.66333 69.2416 10.158C69.5123 10.6527 69.6476 11.25 69.6476 11.95V16.5H68.0656V12.188C68.0656 11.4973 67.893 10.97 67.5476 10.606C67.2023 10.2327 66.731 10.046 66.1336 10.046C65.5363 10.046 65.0603 10.2327 64.7056 10.606C64.3603 10.97 64.1876 11.4973 64.1876 12.188V16.5H62.5916V8.786H64.1876V9.668C64.449 9.35067 64.7803 9.10333 65.1816 8.926C65.5923 8.74867 66.0263 8.66 66.4836 8.66ZM78.7534 12.454C78.7534 12.7433 78.7348 13.0047 78.6974 13.238H72.8034C72.8501 13.854 73.0788 14.3487 73.4894 14.722C73.9001 15.0953 74.4041 15.282 75.0014 15.282C75.8601 15.282 76.4668 14.9227 76.8214 14.204H78.5434C78.3101 14.9133 77.8854 15.4967 77.2694 15.954C76.6628 16.402 75.9068 16.626 75.0014 16.626C74.2641 16.626 73.6014 16.4627 73.0134 16.136C72.4348 15.8 71.9774 15.3333 71.6414 14.736C71.3148 14.1293 71.1514 13.4293 71.1514 12.636C71.1514 11.8427 71.3101 11.1473 71.6274 10.55C71.9541 9.94333 72.4068 9.47667 72.9854 9.15C73.5734 8.82333 74.2454 8.66 75.0014 8.66C75.7294 8.66 76.3781 8.81867 76.9474 9.136C77.5168 9.45333 77.9601 9.90133 78.2774 10.48C78.5948 11.0493 78.7534 11.7073 78.7534 12.454ZM77.0874 11.95C77.0781 11.362 76.8681 10.8907 76.4574 10.536C76.0468 10.1813 75.5381 10.004 74.9314 10.004C74.3808 10.004 73.9094 10.1813 73.5174 10.536C73.1254 10.8813 72.8921 11.3527 72.8174 11.95H77.0874ZM90.684 8.786L88.29 16.5H86.61L85.056 10.802L83.502 16.5H81.822L79.414 8.786H81.038L82.648 14.988L84.286 8.786H85.952L87.52 14.96L89.116 8.786H90.684ZM96.3255 7.764C96.0362 7.764 95.7935 7.666 95.5975 7.47C95.4015 7.274 95.3035 7.03133 95.3035 6.742C95.3035 6.45267 95.4015 6.21 95.5975 6.014C95.7935 5.818 96.0362 5.72 96.3255 5.72C96.6055 5.72 96.8435 5.818 97.0395 6.014C97.2355 6.21 97.3335 6.45267 97.3335 6.742C97.3335 7.03133 97.2355 7.274 97.0395 7.47C96.8435 7.666 96.6055 7.764 96.3255 7.764ZM97.1095 8.786V16.5H95.5135V8.786H97.1095ZM103.097 8.66C103.704 8.66 104.245 8.786 104.721 9.038C105.206 9.29 105.584 9.66333 105.855 10.158C106.126 10.6527 106.261 11.25 106.261 11.95V16.5H104.679V12.188C104.679 11.4973 104.506 10.97 104.161 10.606C103.816 10.2327 103.344 10.046 102.747 10.046C102.15 10.046 101.674 10.2327 101.319 10.606C100.974 10.97 100.801 11.4973 100.801 12.188V16.5H99.2049V8.786H100.801V9.668C101.062 9.35067 101.394 9.10333 101.795 8.926C102.206 8.74867 102.64 8.66 103.097 8.66ZM109.893 9.92C110.163 9.56533 110.532 9.26667 110.999 9.024C111.465 8.78133 111.993 8.66 112.581 8.66C113.253 8.66 113.864 8.828 114.415 9.164C114.975 9.49067 115.413 9.95267 115.731 10.55C116.048 11.1473 116.207 11.8333 116.207 12.608C116.207 13.3827 116.048 14.078 115.731 14.694C115.413 15.3007 114.975 15.7767 114.415 16.122C113.864 16.458 113.253 16.626 112.581 16.626C111.993 16.626 111.47 16.5093 111.013 16.276C110.555 16.0333 110.182 15.7347 109.893 15.38V20.168H108.297V8.786H109.893V9.92ZM114.583 12.608C114.583 12.076 114.471 11.6187 114.247 11.236C114.032 10.844 113.743 10.55 113.379 10.354C113.024 10.1487 112.641 10.046 112.231 10.046C111.829 10.046 111.447 10.1487 111.083 10.354C110.728 10.5593 110.439 10.858 110.215 11.25C110 11.642 109.893 12.104 109.893 12.636C109.893 13.168 110 13.6347 110.215 14.036C110.439 14.428 110.728 14.7267 111.083 14.932C111.447 15.1373 111.829 15.24 112.231 15.24C112.641 15.24 113.024 15.1373 113.379 14.932C113.743 14.7173 114.032 14.4093 114.247 14.008C114.471 13.6067 114.583 13.14 114.583 12.608ZM124.771 8.786V16.5H123.175V15.59C122.923 15.9073 122.592 16.1593 122.181 16.346C121.78 16.5233 121.35 16.612 120.893 16.612C120.286 16.612 119.74 16.486 119.255 16.234C118.779 15.982 118.401 15.6087 118.121 15.114C117.85 14.6193 117.715 14.022 117.715 13.322V8.786H119.297V13.084C119.297 13.7747 119.47 14.3067 119.815 14.68C120.16 15.044 120.632 15.226 121.229 15.226C121.826 15.226 122.298 15.044 122.643 14.68C122.998 14.3067 123.175 13.7747 123.175 13.084V8.786H124.771ZM128.739 10.088V14.358C128.739 14.6473 128.804 14.8573 128.935 14.988C129.075 15.1093 129.308 15.17 129.635 15.17H130.615V16.5H129.355C128.636 16.5 128.085 16.332 127.703 15.996C127.32 15.66 127.129 15.114 127.129 14.358V10.088H126.219V8.786H127.129V6.868H128.739V8.786H130.615V10.088H128.739ZM138.956 10.088H137.528V16.5H135.918V10.088H135.008V8.786H135.918V8.24C135.918 7.35333 136.152 6.70933 136.618 6.308C137.094 5.89733 137.836 5.692 138.844 5.692V7.022C138.359 7.022 138.018 7.11533 137.822 7.302C137.626 7.47933 137.528 7.792 137.528 8.24V8.786H138.956V10.088ZM141.183 7.764C140.894 7.764 140.651 7.666 140.455 7.47C140.259 7.274 140.161 7.03133 140.161 6.742C140.161 6.45267 140.259 6.21 140.455 6.014C140.651 5.818 140.894 5.72 141.183 5.72C141.463 5.72 141.701 5.818 141.897 6.014C142.093 6.21 142.191 6.45267 142.191 6.742C142.191 7.03133 142.093 7.274 141.897 7.47C141.701 7.666 141.463 7.764 141.183 7.764ZM141.967 8.786V16.5H140.371V8.786H141.967ZM151.132 12.454C151.132 12.7433 151.114 13.0047 151.076 13.238H145.182C145.229 13.854 145.458 14.3487 145.868 14.722C146.279 15.0953 146.783 15.282 147.38 15.282C148.239 15.282 148.846 14.9227 149.2 14.204H150.922C150.689 14.9133 150.264 15.4967 149.648 15.954C149.042 16.402 148.286 16.626 147.38 16.626C146.643 16.626 145.98 16.4627 145.392 16.136C144.814 15.8 144.356 15.3333 144.02 14.736C143.694 14.1293 143.53 13.4293 143.53 12.636C143.53 11.8427 143.689 11.1473 144.006 10.55C144.333 9.94333 144.786 9.47667 145.364 9.15C145.952 8.82333 146.624 8.66 147.38 8.66C148.108 8.66 148.757 8.81867 149.326 9.136C149.896 9.45333 150.339 9.90133 150.656 10.48C150.974 11.0493 151.132 11.7073 151.132 12.454ZM149.466 11.95C149.457 11.362 149.247 10.8907 148.836 10.536C148.426 10.1813 147.917 10.004 147.31 10.004C146.76 10.004 146.288 10.1813 145.896 10.536C145.504 10.8813 145.271 11.3527 145.196 11.95H149.466ZM154.299 6.14V16.5H152.703V6.14H154.299ZM155.862 12.608C155.862 11.8333 156.021 11.1473 156.338 10.55C156.665 9.95267 157.104 9.49067 157.654 9.164C158.214 8.828 158.835 8.66 159.516 8.66C160.02 8.66 160.515 8.772 161 8.996C161.495 9.21067 161.887 9.5 162.176 9.864V6.14H163.786V16.5H162.176V15.338C161.915 15.7113 161.551 16.0193 161.084 16.262C160.627 16.5047 160.1 16.626 159.502 16.626C158.83 16.626 158.214 16.458 157.654 16.122C157.104 15.7767 156.665 15.3007 156.338 14.694C156.021 14.078 155.862 13.3827 155.862 12.608ZM162.176 12.636C162.176 12.104 162.064 11.642 161.84 11.25C161.626 10.858 161.341 10.5593 160.986 10.354C160.632 10.1487 160.249 10.046 159.838 10.046C159.428 10.046 159.045 10.1487 158.69 10.354C158.336 10.55 158.046 10.844 157.822 11.236C157.608 11.6187 157.5 12.076 157.5 12.608C157.5 13.14 157.608 13.6067 157.822 14.008C158.046 14.4093 158.336 14.7173 158.69 14.932C159.054 15.1373 159.437 15.24 159.838 15.24C160.249 15.24 160.632 15.1373 160.986 14.932C161.341 14.7267 161.626 14.428 161.84 14.036C162.064 13.6347 162.176 13.168 162.176 12.636Z" fill="#454238"/>
<defs>
<linearGradient id="paint0_linear_536_4086" x1="4.16663" y1="4" x2="20.2786" y2="4.13571" gradientUnits="userSpaceOnUse">
<stop stop-color="#0397EB"/>
<stop offset="1" stop-color="#0397EB"/>
</linearGradient>
<linearGradient id="paint1_linear_536_4086" x1="2.16663" y1="2" x2="22.3066" y2="2.16963" gradientUnits="userSpaceOnUse">
<stop stop-color="#0397EB"/>
<stop offset="1" stop-color="#0397EB"/>
</linearGradient>
<clipPath id="clip0_536_4086">
<rect width="24" height="24" fill="white" transform="translate(0.166626)"/>
</clipPath>
</defs>
</svg>
