<svg width="159" height="100" viewBox="0 0 159 100" fill="none" xmlns="http://www.w3.org/2000/svg">
<path d="M59.2281 44.77C60.2641 44.77 61.1694 44.9707 61.9441 45.372C62.7281 45.764 63.3301 46.3333 63.7501 47.08C64.1794 47.8173 64.3941 48.6807 64.3941 49.67C64.3941 50.6593 64.1794 51.518 63.7501 52.246C63.3301 52.974 62.7281 53.534 61.9441 53.926C61.1694 54.3087 60.2641 54.5 59.2281 54.5H56.0501V44.77H59.2281ZM59.2281 53.198C60.3667 53.198 61.2394 52.89 61.8461 52.274C62.4527 51.658 62.7561 50.79 62.7561 49.67C62.7561 48.5407 62.4527 47.6587 61.8461 47.024C61.2394 46.3893 60.3667 46.072 59.2281 46.072H57.6461V53.198H59.2281ZM73.0458 50.454C73.0458 50.7433 73.0272 51.0047 72.9898 51.238H67.0958C67.1425 51.854 67.3712 52.3487 67.7818 52.722C68.1925 53.0953 68.6965 53.282 69.2938 53.282C70.1525 53.282 70.7592 52.9227 71.1138 52.204H72.8358C72.6025 52.9133 72.1778 53.4967 71.5618 53.954C70.9552 54.402 70.1992 54.626 69.2938 54.626C68.5565 54.626 67.8938 54.4627 67.3058 54.136C66.7272 53.8 66.2698 53.3333 65.9338 52.736C65.6072 52.1293 65.4438 51.4293 65.4438 50.636C65.4438 49.8427 65.6025 49.1473 65.9198 48.55C66.2465 47.9433 66.6992 47.4767 67.2778 47.15C67.8658 46.8233 68.5378 46.66 69.2938 46.66C70.0218 46.66 70.6705 46.8187 71.2398 47.136C71.8092 47.4533 72.2525 47.9013 72.5698 48.48C72.8872 49.0493 73.0458 49.7073 73.0458 50.454ZM71.3798 49.95C71.3705 49.362 71.1605 48.8907 70.7498 48.536C70.3392 48.1813 69.8305 48.004 69.2238 48.004C68.6732 48.004 68.2018 48.1813 67.8098 48.536C67.4178 48.8813 67.1845 49.3527 67.1098 49.95H71.3798ZM77.8505 48.088H76.4225V54.5H74.8125V48.088H73.9025V46.786H74.8125V46.24C74.8125 45.3533 75.0458 44.7093 75.5125 44.308C75.9885 43.8973 76.7305 43.692 77.7385 43.692V45.022C77.2531 45.022 76.9125 45.1153 76.7165 45.302C76.5205 45.4793 76.4225 45.792 76.4225 46.24V46.786H77.8505V48.088ZM78.7329 50.608C78.7329 49.8333 78.8916 49.1473 79.2089 48.55C79.5356 47.9527 79.9742 47.4907 80.5249 47.164C81.0849 46.828 81.7009 46.66 82.3729 46.66C82.9796 46.66 83.5069 46.7813 83.9549 47.024C84.4122 47.2573 84.7762 47.5513 85.0469 47.906V46.786H86.6569V54.5H85.0469V53.352C84.7762 53.716 84.4076 54.0193 83.9409 54.262C83.4742 54.5047 82.9422 54.626 82.3449 54.626C81.6822 54.626 81.0756 54.458 80.5249 54.122C79.9742 53.7767 79.5356 53.3007 79.2089 52.694C78.8916 52.078 78.7329 51.3827 78.7329 50.608ZM85.0469 50.636C85.0469 50.104 84.9349 49.642 84.7109 49.25C84.4962 48.858 84.2116 48.5593 83.8569 48.354C83.5022 48.1487 83.1196 48.046 82.7089 48.046C82.2982 48.046 81.9156 48.1487 81.5609 48.354C81.2062 48.55 80.9169 48.844 80.6929 49.236C80.4782 49.6187 80.3709 50.076 80.3709 50.608C80.3709 51.14 80.4782 51.6067 80.6929 52.008C80.9169 52.4093 81.2062 52.7173 81.5609 52.932C81.9249 53.1373 82.3076 53.24 82.7089 53.24C83.1196 53.24 83.5022 53.1373 83.8569 52.932C84.2116 52.7267 84.4962 52.428 84.7109 52.036C84.9349 51.6347 85.0469 51.168 85.0469 50.636ZM95.7392 46.786V54.5H94.1432V53.59C93.8912 53.9073 93.5599 54.1593 93.1492 54.346C92.7479 54.5233 92.3185 54.612 91.8612 54.612C91.2545 54.612 90.7085 54.486 90.2232 54.234C89.7472 53.982 89.3692 53.6087 89.0892 53.114C88.8185 52.6193 88.6832 52.022 88.6832 51.322V46.786H90.2652V51.084C90.2652 51.7747 90.4379 52.3067 90.7832 52.68C91.1285 53.044 91.5999 53.226 92.1972 53.226C92.7945 53.226 93.2659 53.044 93.6112 52.68C93.9659 52.3067 94.1432 51.7747 94.1432 51.084V46.786H95.7392ZM99.441 44.14V54.5H97.845V44.14H99.441ZM103.398 48.088V52.358C103.398 52.6473 103.464 52.8573 103.594 52.988C103.734 53.1093 103.968 53.17 104.294 53.17H105.274V54.5H104.014C103.296 54.5 102.745 54.332 102.362 53.996C101.98 53.66 101.788 53.114 101.788 52.358V48.088H100.878V46.786H101.788V44.868H103.398V46.786H105.274V48.088H103.398Z" fill="#454238"/>
<rect x="1" y="1" width="156.286" height="98" rx="9" stroke="#D9D9D9" stroke-width="2"/>
</svg>
