<svg width="216" height="57" viewBox="0 0 216 57" fill="none" xmlns="http://www.w3.org/2000/svg">
<rect y="0.25" width="216" height="56" rx="10" fill="url(#paint0_linear_438_4151)"/>
<g clip-path="url(#clip0_438_4151)">
<path d="M41 32.25H47V26.25H51L44 19.25L37 26.25H41V32.25ZM37 34.25H51V36.25H37V34.25Z" fill="white"/>
</g>
<path d="M67.916 30.762H63.842L63.142 32.75H61.476L64.962 23.006H66.81L70.296 32.75H68.616L67.916 30.762ZM67.468 29.46L65.886 24.938L64.29 29.46H67.468ZM71.2797 28.858C71.2797 28.0833 71.4384 27.3973 71.7557 26.8C72.0824 26.2027 72.5211 25.7407 73.0717 25.414C73.6317 25.078 74.2524 24.91 74.9337 24.91C75.4377 24.91 75.9324 25.022 76.4177 25.246C76.9124 25.4607 77.3044 25.75 77.5937 26.114V22.39H79.2037V32.75H77.5937V31.588C77.3324 31.9613 76.9684 32.2693 76.5017 32.512C76.0444 32.7547 75.5171 32.876 74.9197 32.876C74.2477 32.876 73.6317 32.708 73.0717 32.372C72.5211 32.0267 72.0824 31.5507 71.7557 30.944C71.4384 30.328 71.2797 29.6327 71.2797 28.858ZM77.5937 28.886C77.5937 28.354 77.4817 27.892 77.2577 27.5C77.0431 27.108 76.7584 26.8093 76.4037 26.604C76.0491 26.3987 75.6664 26.296 75.2557 26.296C74.8451 26.296 74.4624 26.3987 74.1077 26.604C73.7531 26.8 73.4637 27.094 73.2397 27.486C73.0251 27.8687 72.9177 28.326 72.9177 28.858C72.9177 29.39 73.0251 29.8567 73.2397 30.258C73.4637 30.6593 73.7531 30.9673 74.1077 31.182C74.4717 31.3873 74.8544 31.49 75.2557 31.49C75.6664 31.49 76.0491 31.3873 76.4037 31.182C76.7584 30.9767 77.0431 30.678 77.2577 30.286C77.4817 29.8847 77.5937 29.418 77.5937 28.886ZM80.768 28.858C80.768 28.0833 80.9267 27.3973 81.244 26.8C81.5707 26.2027 82.0093 25.7407 82.56 25.414C83.12 25.078 83.7407 24.91 84.422 24.91C84.926 24.91 85.4207 25.022 85.906 25.246C86.4007 25.4607 86.7927 25.75 87.082 26.114V22.39H88.692V32.75H87.082V31.588C86.8207 31.9613 86.4567 32.2693 85.99 32.512C85.5327 32.7547 85.0053 32.876 84.408 32.876C83.736 32.876 83.12 32.708 82.56 32.372C82.0093 32.0267 81.5707 31.5507 81.244 30.944C80.9267 30.328 80.768 29.6327 80.768 28.858ZM87.082 28.886C87.082 28.354 86.97 27.892 86.746 27.5C86.5313 27.108 86.2467 26.8093 85.892 26.604C85.5373 26.3987 85.1547 26.296 84.744 26.296C84.3333 26.296 83.9507 26.3987 83.596 26.604C83.2413 26.8 82.952 27.094 82.728 27.486C82.5133 27.8687 82.406 28.326 82.406 28.858C82.406 29.39 82.5133 29.8567 82.728 30.258C82.952 30.6593 83.2413 30.9673 83.596 31.182C83.96 31.3873 84.3427 31.49 84.744 31.49C85.1547 31.49 85.5373 31.3873 85.892 31.182C86.2467 30.9767 86.5313 30.678 86.746 30.286C86.97 29.8847 87.082 29.418 87.082 28.886ZM101.369 25.036L96.637 36.376H94.985L96.553 32.624L93.515 25.036H95.293L97.463 30.916L99.717 25.036H101.369ZM105.919 32.876C105.191 32.876 104.533 32.7127 103.945 32.386C103.357 32.05 102.895 31.5833 102.559 30.986C102.223 30.3793 102.055 29.6793 102.055 28.886C102.055 28.102 102.228 27.4067 102.573 26.8C102.919 26.1933 103.39 25.7267 103.987 25.4C104.585 25.0733 105.252 24.91 105.989 24.91C106.727 24.91 107.394 25.0733 107.991 25.4C108.589 25.7267 109.06 26.1933 109.405 26.8C109.751 27.4067 109.923 28.102 109.923 28.886C109.923 29.67 109.746 30.3653 109.391 30.972C109.037 31.5787 108.551 32.05 107.935 32.386C107.329 32.7127 106.657 32.876 105.919 32.876ZM105.919 31.49C106.33 31.49 106.713 31.392 107.067 31.196C107.431 31 107.725 30.706 107.949 30.314C108.173 29.922 108.285 29.446 108.285 28.886C108.285 28.326 108.178 27.8547 107.963 27.472C107.749 27.08 107.464 26.786 107.109 26.59C106.755 26.394 106.372 26.296 105.961 26.296C105.551 26.296 105.168 26.394 104.813 26.59C104.468 26.786 104.193 27.08 103.987 27.472C103.782 27.8547 103.679 28.326 103.679 28.886C103.679 29.7167 103.889 30.3607 104.309 30.818C104.739 31.266 105.275 31.49 105.919 31.49ZM118.487 25.036V32.75H116.891V31.84C116.639 32.1573 116.308 32.4093 115.897 32.596C115.496 32.7733 115.067 32.862 114.609 32.862C114.003 32.862 113.457 32.736 112.971 32.484C112.495 32.232 112.117 31.8587 111.837 31.364C111.567 30.8693 111.431 30.272 111.431 29.572V25.036H113.013V29.334C113.013 30.0247 113.186 30.5567 113.531 30.93C113.877 31.294 114.348 31.476 114.945 31.476C115.543 31.476 116.014 31.294 116.359 30.93C116.714 30.5567 116.891 30.0247 116.891 29.334V25.036H118.487ZM122.189 26.156C122.422 25.764 122.73 25.4607 123.113 25.246C123.505 25.022 123.967 24.91 124.499 24.91V26.562H124.093C123.468 26.562 122.992 26.7207 122.665 27.038C122.348 27.3553 122.189 27.906 122.189 28.69V32.75H120.593V25.036H122.189V26.156ZM135.329 23.02V24.322H131.199V27.192H134.419V28.494H131.199V32.75H129.603V23.02H135.329ZM136.276 28.858C136.276 28.0833 136.434 27.3973 136.752 26.8C137.078 26.2027 137.517 25.7407 138.068 25.414C138.628 25.078 139.244 24.91 139.916 24.91C140.522 24.91 141.05 25.0313 141.498 25.274C141.955 25.5073 142.319 25.8013 142.59 26.156V25.036H144.2V32.75H142.59V31.602C142.319 31.966 141.95 32.2693 141.484 32.512C141.017 32.7547 140.485 32.876 139.888 32.876C139.225 32.876 138.618 32.708 138.068 32.372C137.517 32.0267 137.078 31.5507 136.752 30.944C136.434 30.328 136.276 29.6327 136.276 28.858ZM142.59 28.886C142.59 28.354 142.478 27.892 142.254 27.5C142.039 27.108 141.754 26.8093 141.4 26.604C141.045 26.3987 140.662 26.296 140.252 26.296C139.841 26.296 139.458 26.3987 139.104 26.604C138.749 26.8 138.46 27.094 138.236 27.486C138.021 27.8687 137.914 28.326 137.914 28.858C137.914 29.39 138.021 29.8567 138.236 30.258C138.46 30.6593 138.749 30.9673 139.104 31.182C139.468 31.3873 139.85 31.49 140.252 31.49C140.662 31.49 141.045 31.3873 141.4 31.182C141.754 30.9767 142.039 30.678 142.254 30.286C142.478 29.8847 142.59 29.418 142.59 28.886ZM149.278 31.322L151.462 25.036H153.156L150.216 32.75H148.312L145.386 25.036H147.094L149.278 31.322ZM155.175 24.014C154.885 24.014 154.643 23.916 154.447 23.72C154.251 23.524 154.153 23.2813 154.153 22.992C154.153 22.7027 154.251 22.46 154.447 22.264C154.643 22.068 154.885 21.97 155.175 21.97C155.455 21.97 155.693 22.068 155.889 22.264C156.085 22.46 156.183 22.7027 156.183 22.992C156.183 23.2813 156.085 23.524 155.889 23.72C155.693 23.916 155.455 24.014 155.175 24.014ZM155.959 25.036V32.75H154.363V25.036H155.959ZM157.522 28.886C157.522 28.0927 157.681 27.3973 157.998 26.8C158.325 26.1933 158.773 25.7267 159.342 25.4C159.911 25.0733 160.565 24.91 161.302 24.91C162.235 24.91 163.005 25.134 163.612 25.582C164.228 26.0207 164.643 26.6507 164.858 27.472H163.136C162.996 27.0893 162.772 26.7907 162.464 26.576C162.156 26.3613 161.769 26.254 161.302 26.254C160.649 26.254 160.126 26.4873 159.734 26.954C159.351 27.4113 159.16 28.0553 159.16 28.886C159.16 29.7167 159.351 30.3653 159.734 30.832C160.126 31.2987 160.649 31.532 161.302 31.532C162.226 31.532 162.837 31.126 163.136 30.314H164.858C164.634 31.098 164.214 31.7233 163.598 32.19C162.982 32.6473 162.217 32.876 161.302 32.876C160.565 32.876 159.911 32.7127 159.342 32.386C158.773 32.05 158.325 31.5833 157.998 30.986C157.681 30.3793 157.522 29.6793 157.522 28.886ZM169.794 32.876C169.066 32.876 168.408 32.7127 167.82 32.386C167.232 32.05 166.77 31.5833 166.434 30.986C166.098 30.3793 165.93 29.6793 165.93 28.886C165.93 28.102 166.103 27.4067 166.448 26.8C166.794 26.1933 167.265 25.7267 167.862 25.4C168.46 25.0733 169.127 24.91 169.864 24.91C170.602 24.91 171.269 25.0733 171.866 25.4C172.464 25.7267 172.935 26.1933 173.28 26.8C173.626 27.4067 173.798 28.102 173.798 28.886C173.798 29.67 173.621 30.3653 173.266 30.972C172.912 31.5787 172.426 32.05 171.81 32.386C171.204 32.7127 170.532 32.876 169.794 32.876ZM169.794 31.49C170.205 31.49 170.588 31.392 170.942 31.196C171.306 31 171.6 30.706 171.824 30.314C172.048 29.922 172.16 29.446 172.16 28.886C172.16 28.326 172.053 27.8547 171.838 27.472C171.624 27.08 171.339 26.786 170.984 26.59C170.63 26.394 170.247 26.296 169.836 26.296C169.426 26.296 169.043 26.394 168.688 26.59C168.343 26.786 168.068 27.08 167.862 27.472C167.657 27.8547 167.554 28.326 167.554 28.886C167.554 29.7167 167.764 30.3607 168.184 30.818C168.614 31.266 169.15 31.49 169.794 31.49ZM179.268 24.91C179.875 24.91 180.416 25.036 180.892 25.288C181.378 25.54 181.756 25.9133 182.026 26.408C182.297 26.9027 182.432 27.5 182.432 28.2V32.75H180.85V28.438C180.85 27.7473 180.678 27.22 180.332 26.856C179.987 26.4827 179.516 26.296 178.918 26.296C178.321 26.296 177.845 26.4827 177.49 26.856C177.145 27.22 176.972 27.7473 176.972 28.438V32.75H175.376V25.036H176.972V25.918C177.234 25.6007 177.565 25.3533 177.966 25.176C178.377 24.9987 178.811 24.91 179.268 24.91Z" fill="white"/>
<defs>
<linearGradient id="paint0_linear_438_4151" x1="0" y1="0.25" x2="217.298" y2="7.30944" gradientUnits="userSpaceOnUse">
<stop stop-color="#0397EB"/>
<stop offset="1" stop-color="#0397EB"/>
</linearGradient>
<clipPath id="clip0_438_4151">
<rect width="24" height="24" fill="white" transform="translate(32 16.25)"/>
</clipPath>
</defs>
</svg>
